<svg width="100" height="100" viewBox="0 0 100 100" fill="none" xmlns="http://www.w3.org/2000/svg">
<circle cx="50" cy="50" r="50" fill="white"/>
<path d="M43.56 72.28C41.672 72.28 40.04 71.96 38.664 71.32C37.32 70.712 36.296 69.8 35.592 68.584C34.888 67.4 34.584 65.976 34.68 64.312L35.16 56.44C35.256 54.744 35 53.528 34.392 52.792C33.784 52.024 32.44 51.64 30.36 51.64H25.08V47.8H30.36C32.44 47.8 33.784 47.432 34.392 46.696C35 45.928 35.256 44.696 35.16 43L34.68 35.128C34.584 33.432 34.888 31.992 35.592 30.808C36.296 29.624 37.32 28.728 38.664 28.12C40.04 27.48 41.672 27.16 43.56 27.16H45.72V31H43.56C42.056 31 40.904 31.352 40.104 32.056C39.304 32.728 38.936 33.752 39 35.128L39.48 43C39.608 45.08 39.112 46.744 37.992 47.992C36.872 49.208 35.288 49.816 33.24 49.816V49.576C35.256 49.576 36.824 50.2 37.944 51.448C39.096 52.696 39.608 54.36 39.48 56.44L39 64.312C38.936 65.688 39.304 66.712 40.104 67.384C40.904 68.088 42.056 68.44 43.56 68.44H45.72V72.28H43.56ZM53.8613 72.28V68.44H56.0213C57.5253 68.44 58.6773 68.088 59.4773 67.384C60.2773 66.712 60.6453 65.688 60.5813 64.312L60.1013 56.44C59.9733 54.36 60.4693 52.696 61.5893 51.448C62.7413 50.2 64.3253 49.576 66.3413 49.576V49.816C64.2933 49.816 62.7093 49.208 61.5893 47.992C60.4693 46.744 59.9733 45.08 60.1013 43L60.5813 35.128C60.6453 33.752 60.2773 32.728 59.4773 32.056C58.6773 31.352 57.5253 31 56.0213 31H53.8613V27.16H56.0213C57.9093 27.16 59.5253 27.48 60.8693 28.12C62.2453 28.728 63.2853 29.624 63.9893 30.808C64.6933 31.992 64.9973 33.432 64.9013 35.128L64.4213 43C64.3253 44.696 64.5813 45.928 65.1893 46.696C65.7973 47.432 67.1413 47.8 69.2213 47.8H74.5013V51.64H69.2213C67.1733 51.64 65.8293 52.024 65.1893 52.792C64.5813 53.528 64.3253 54.744 64.4213 56.44L64.9013 64.312C64.9973 65.976 64.6933 67.4 63.9893 68.584C63.2853 69.8 62.2453 70.712 60.8693 71.32C59.5253 71.96 57.9093 72.28 56.0213 72.28H53.8613Z" fill="black"/>
</svg>
